<svg xmlns="http://www.w3.org/2000/svg" width="172.23" height="47.634" viewBox="0 0 172.23 47.634">
  <g id="Group_8580" data-name="Group 8580" transform="translate(-171.941 -27.436)">
    <path id="Path_2" data-name="Path 2" d="M97.922,24.329l2.893.4q-.89,6.327-6.21,6.327A5.7,5.7,0,0,1,89.451,28.4,13.08,13.08,0,0,1,87.757,21.3q0-4.8,1.791-7.355a5.922,5.922,0,0,1,5.168-2.558q5.223,0,6.126,6.48l-2.92.431q-.473-4.311-3.191-4.311-3.636,0-3.636,7.495,0,6.98,3.636,6.981A2.435,2.435,0,0,0,96.9,27.394a7.6,7.6,0,0,0,1.02-3.065" transform="translate(142.621 17.512)" fill="#2b374b"/>
    <path id="Path_3" data-name="Path 3" d="M104.3,11.717h3.144V28.042h6.716V30.7H104.3Z" transform="translate(143.303 17.526)" fill="#2b374b"/>
    <path id="Path_4" data-name="Path 4" d="M116.847,11.717h3.073V23.495a14.576,14.576,0,0,0,.209,2.913,2.44,2.44,0,0,0,.952,1.488,4,4,0,0,0,3.872.1,2.414,2.414,0,0,0,.945-1.279,12.288,12.288,0,0,0,.278-3.275V11.717H129V23.286a17.785,17.785,0,0,1-.4,4.283,4.326,4.326,0,0,1-1.836,2.49,6.714,6.714,0,0,1-3.859.987,7.95,7.95,0,0,1-3.26-.619,4.247,4.247,0,0,1-2.093-2,11.907,11.907,0,0,1-.709-4.93Z" transform="translate(143.821 17.526)" fill="#2b374b"/>
    <path id="Path_5" data-name="Path 5" d="M133.386,11.717h5.744a11.83,11.83,0,0,1,3.3.348,3.519,3.519,0,0,1,1.906,1.55,5.276,5.276,0,0,1,.778,2.927,4,4,0,0,1-2.823,4.158,4.53,4.53,0,0,1,3.407,4.769,5.453,5.453,0,0,1-1.342,3.664q-1.342,1.565-5.138,1.564h-5.827Zm3.074,7.871h1.988a3.658,3.658,0,0,0,2.768-.773,2.938,2.938,0,0,0,.667-2,2.492,2.492,0,0,0-.765-2.051,3.723,3.723,0,0,0-2.363-.619H136.46Zm0,8.592h2.53q3.477,0,3.477-3.073a3.393,3.393,0,0,0-.737-2.142q-.736-.945-3-.945H136.46Z" transform="translate(144.503 17.526)" fill="#2b374b"/>
    <path id="Path_6" data-name="Path 6" d="M99.709,40.141l-2.684.931a5.056,5.056,0,0,0-1.244-2.227,2.965,2.965,0,0,0-2.106-.721,2.469,2.469,0,0,0-1.912.733,2.407,2.407,0,0,0-.675,1.681,2.043,2.043,0,0,0,.758,1.666,12.128,12.128,0,0,0,3.025,1.483,16.86,16.86,0,0,1,2.975,1.4,5.056,5.056,0,0,1,2.337,4.38,5.543,5.543,0,0,1-1.689,4.075,6.42,6.42,0,0,1-4.736,1.683q-5.256,0-6.507-5.312l2.808-.792q.737,3.5,3.838,3.5a3.115,3.115,0,0,0,2.3-.786,2.632,2.632,0,0,0,.786-1.939,2.566,2.566,0,0,0-.542-1.571,6.488,6.488,0,0,0-2.7-1.544,22.815,22.815,0,0,1-3.288-1.46,5.159,5.159,0,0,1-2.427-4.422A5.112,5.112,0,0,1,89.606,37.1,5.737,5.737,0,0,1,93.8,35.552q4.631,0,5.91,4.589" transform="translate(142.6 18.509)" fill="#2b374b"/>
    <path id="Path_7" data-name="Path 7" d="M103.844,35.886h4.7a13,13,0,0,1,3.657.424,4.338,4.338,0,0,1,2.364,1.877,6.208,6.208,0,0,1,.959,3.5,6.339,6.339,0,0,1-.779,3.226,4.581,4.581,0,0,1-2.092,1.947,10.309,10.309,0,0,1-4.04.6h-1.626v7.413h-3.144Zm3.144,2.433v6.619h1.558a4.129,4.129,0,0,0,2.885-.779,3.422,3.422,0,0,0,.8-2.531,3.837,3.837,0,0,0-.528-2.12,2.22,2.22,0,0,0-1.161-1,7.671,7.671,0,0,0-2-.187Z" transform="translate(143.284 18.523)" fill="#2b374b"/>
    <path id="Path_8" data-name="Path 8" d="M131.9,45.384q0,4.865-1.738,7.355a5.773,5.773,0,0,1-5.048,2.49,5.861,5.861,0,0,1-5.089-2.482q-1.766-2.483-1.767-7.363,0-4.839,1.752-7.336a6.406,6.406,0,0,1,10.138-.014q1.751,2.482,1.751,7.349m-3.3.006a14.564,14.564,0,0,0-.786-5.323,2.906,2.906,0,0,0-5.485.006,14.712,14.712,0,0,0-.779,5.317,14.984,14.984,0,0,0,.765,5.29,2.791,2.791,0,0,0,2.795,1.976,2.756,2.756,0,0,0,2.7-1.914,14.433,14.433,0,0,0,.792-5.352" transform="translate(143.879 18.509)" fill="#2b374b"/>
    <path id="Path_9" data-name="Path 9" d="M135.75,35.886h5.715a6.43,6.43,0,0,1,4.574,1.4,5.3,5.3,0,0,1,1.475,4.033,5.112,5.112,0,0,1-2.907,4.964l3.6,8.58H144.8l-2.951-7.926h-2.956v7.926H135.75Zm3.145,2.433v6.187h2.4a2.946,2.946,0,0,0,2.371-.889,3.458,3.458,0,0,0,.757-2.322q0-2.975-3.1-2.976Z" transform="translate(144.601 18.523)" fill="#2b374b"/>
    <path id="Path_10" data-name="Path 10" d="M149.862,35.886h11.6v2.67h-4.241V54.867h-3.143V38.556h-4.214Z" transform="translate(145.183 18.523)" fill="#2b374b"/>
    <rect id="Rectangle_6" data-name="Rectangle 6" width="3.144" height="18.981" transform="translate(309.57 54.409)" fill="#2b374b"/>
    <path id="Path_11" data-name="Path 11" d="M169.978,35.886h3.3L176.9,51.029l3.628-15.143H183.3l-5.014,19.023-3.4-.042Z" transform="translate(146.013 18.523)" fill="#2b374b"/>
    <path id="Path_12" data-name="Path 12" d="M188.983,35.886h3.523l5.1,18.981H194.42l-1.191-4.755h-5.566l-1.18,4.755h-3Zm3.627,11.751-2.176-8.691-2.155,8.691Z" transform="translate(146.57 18.523)" fill="#2b374b"/>
    <path id="Path_13" data-name="Path 13" d="M69.743,32.667a11.87,11.87,0,0,0-2.753-.676,20.543,20.543,0,0,1-5.867-1.184,8.528,8.528,0,0,1-4.233-4.036c-.046-.095-.091-.191-.133-.287a8.569,8.569,0,0,1-.6-1.983c-.031-.172-.067-.34-.085-.515-.005-.045,0-.092-.009-.136-.024-.239-.043-.481-.048-.725,0-.14.008-.277.012-.418s0-.286.016-.429c.019-.207.048-.414.079-.621.01-.067.017-.136.028-.2.041-.227.095-.454.153-.676.012-.045.02-.091.033-.134.06-.217.134-.43.211-.64.019-.053.035-.108.056-.16.072-.184.154-.364.238-.544.037-.079.071-.16.111-.239.07-.141.152-.278.23-.414.066-.113.128-.229.2-.338s.129-.185.194-.278c.1-.144.2-.289.31-.428.043-.054.09-.106.135-.16.137-.166.279-.329.428-.484.026-.028.428-.42.612-.577.021-.018.74-.559.78-.587.188-.127.379-.25.579-.363.1-.057.607-.313.753-.379s1.013-.339,1.246-.406c.025-.006.561-.143.807-.187.046-.008.1-.012.145-.021.191-.031.381-.056.574-.076.082-.008.7-.039.823-.043.1,0,.441.015.514.021a8.748,8.748,0,0,1,7.39,5.07,8.6,8.6,0,0,1,.772,3.649l4.331.042a13.013,13.013,0,0,0-7.762-12.016l-.034-.014c-.155-.07-.318-.134-.478-.2-.04-.012-.075-.029-.112-.044a12.845,12.845,0,0,0-3.809-.819c-.039,0-.076,0-.114-.006-.176-.007-.352-.014-.527-.017a.2.2,0,0,0-.035,0c-.087,0-.173,0-.258,0-.052,0-.1,0-.157-.005l-.037,0c-.17,0-.345.01-.518.019-.04,0-.08,0-.121.006a12.932,12.932,0,0,0-3.8.838c-.035.014-.07.03-.106.044-.161.065-.324.131-.484.2a.19.19,0,0,0-.033.015c-.092.042-.181.086-.274.129s-.175.081-.259.125c-.161.081-.322.166-.478.253l-.058.032a12.9,12.9,0,0,0-3.775,3.2l-.01.015c-.111.14-.22.28-.324.424-.033.043-.062.085-.095.129-.075.105-.148.211-.22.319-.058.086-.115.174-.172.261-.042.066-.081.13-.122.2-.082.132-.161.268-.238.4-.012.023-.026.048-.039.069a12.912,12.912,0,0,0-1.587,5.211,16.653,16.653,0,0,0,.994,6.226c.026.053.051.109.079.16a15.694,15.694,0,0,0,5.535,5.929c2.642,1.584,5.609,1.335,8.494,2.037a8.7,8.7,0,0,1,5.81,4.891,8.1,8.1,0,0,1,.3.774.157.157,0,0,1,.014.03,8.661,8.661,0,0,1,.229.836q.091.42.143.854c0,.014,0,.027,0,.042.03.27.049.542.054.819,0,.131-.008.261-.012.393,0,.151,0,.3-.017.452-.017.2-.046.406-.078.607-.01.072-.016.147-.029.218-.042.224-.094.447-.151.667-.014.048-.022.1-.035.144-.059.213-.131.423-.209.632-.019.055-.037.112-.058.168-.071.182-.152.359-.235.537-.039.081-.074.166-.113.245-.072.141-.152.276-.229.411-.068.115-.131.23-.2.343-.06.094-.127.183-.191.275-.1.146-.2.292-.311.43-.045.055-.092.107-.135.159-.14.167-.28.33-.43.485-.026.029-.055.055-.082.082-.171.171-.345.337-.529.495-.022.02-.045.035-.069.054-.19.158-.385.31-.587.454-.044.029-.092.056-.136.085-.184.125-.37.245-.564.356-.117.065-.241.123-.36.183s-.258.136-.392.2c-.233.1-.47.193-.706.273-.034.011-.066.026-.1.037-.254.084-.512.153-.769.211a8.647,8.647,0,0,1-.861.151l-.068.01c-.221.026-.446.036-.672.044-.068,0-.132.011-.2.011l-.068,0q-.348,0-.687-.027c-.037,0-.076,0-.114,0-.272-.025-.537-.065-.8-.115a8.53,8.53,0,0,1-1.711-.505c-4.226-1.737-6.361-6.273-5.814-11.6a6.063,6.063,0,0,1,.393-1.727h-4.6a11.137,11.137,0,0,1-1.988,1.731,8.623,8.623,0,0,1-11.134-1.238c-.12-.128-.243-.251-.354-.386-.04-.046-.071-.094-.107-.141-.142-.177-.283-.358-.413-.55-.085-.124-.156-.253-.233-.381s-.143-.226-.205-.343c-.1-.19-.2-.384-.283-.581-.026-.054-.055-.11-.08-.166-.091-.219-.172-.44-.246-.664-.012-.04-.028-.077-.042-.117-.069-.218-.125-.439-.176-.661-.012-.052-.027-.1-.039-.154-.042-.2-.072-.4-.1-.6-.011-.083-.027-.168-.036-.252-.019-.16-.025-.322-.033-.484,0-.062-.007-.128-.01-.192,0-.144-.005-.287,0-.429,0-.011,0-.021,0-.031a8.174,8.174,0,0,1,.093-.862,8.34,8.34,0,0,1,.177-.848c0-.016.009-.029.014-.044.07-.26.151-.521.248-.779a8.592,8.592,0,0,1,7.47-5.884l.561-.046c3.332-.055,3.78.53,5.118,1.374a18.249,18.249,0,0,1-.537-4.6c-3.935-1.293-7.962-1.455-11.765,1.1-.01.006-.02.015-.031.022-.129.086-.255.179-.38.272l-.142.1a13.122,13.122,0,0,0-2.725,2.786.25.25,0,0,0-.022.032c-.118.162-.23.329-.339.5-.005.008-.011.017-.016.025-.049.077-.094.155-.141.231-.056.093-.116.183-.169.276-.087.151-.169.3-.25.454-.016.027-.031.054-.044.08A12.873,12.873,0,0,0,31.7,32.6l0,.018c-.016.177-.029.354-.04.531,0,.054-.005.106-.006.16-.005.129-.008.257-.01.387,0,.095,0,.188,0,.284v.115c0,.21,0,.42.014.629v.028c0,.084.012.166.018.249.007.116.015.231.024.347.017.167.036.334.059.5,0,.034.007.069.011.1a12.886,12.886,0,0,0,1.607,4.678l.008.014c.089.154.18.306.277.457.028.045.056.091.085.134.071.107.143.215.215.32.061.086.121.172.184.257.045.062.091.123.136.184.095.126.192.249.291.371l.048.059a12.9,12.9,0,0,0,4.355,3.426l.014.005q.264.128.538.246c.075.032.151.062.228.092.1.043.206.087.313.128.011,0,.025.007.036.013.165.062.333.119.5.174.033.01.066.024.1.034a12.886,12.886,0,0,0,2.756.554c.143.012.289.027.433.034.071,0,.142,0,.211.006.145.006.291.014.435.015.11,0,.222,0,.334-.006s.2,0,.3-.006a.224.224,0,0,0,.052,0,13.068,13.068,0,0,0,6.566-2.143,14.173,14.173,0,0,0,1.017,4.69l.154.335a12.723,12.723,0,0,0,9.985,7.473c.185.025.374.047.559.065.034,0,.069.008.1.01.154.015.308.024.463.031.066,0,.128.008.192.01.127.006.254.007.379.007.089,0,.176,0,.27,0h.037c.087,0,.175-.007.262-.01.106,0,.212-.006.32-.012.136-.007.272-.021.41-.032.065-.006.13-.01.2-.019.2-.02.392-.046.595-.077a12.85,12.85,0,0,0,4.1-1.356l.047-.024c.147-.079.293-.161.437-.245l.162-.1c.1-.062.206-.127.305-.193s.19-.122.282-.184c.059-.04.116-.079.174-.121q.2-.137.393-.286c.016-.014.034-.025.05-.039a12.876,12.876,0,0,0,3.575-4.23c.011-.022.022-.046.034-.067.08-.157.16-.316.236-.476.048-.1.092-.2.137-.306.033-.078.071-.156.1-.235,0-.01.006-.019.01-.027a12.9,12.9,0,0,0,.9-3.481c.011-.1.025-.192.033-.286s.011-.163.017-.244c.009-.134.02-.27.026-.4.005-.111,0-.222.005-.333s.006-.2.006-.307c0-.017,0-.033,0-.051a29.974,29.974,0,0,0-.386-2.985,13.041,13.041,0,0,0-5.1-7.48,11.324,11.324,0,0,0-2.533-1.343" transform="translate(140.305 17.454)" fill="#9c3825"/>
  </g>
</svg>
