<svg xmlns="http://www.w3.org/2000/svg" xmlns:xlink="http://www.w3.org/1999/xlink" width="291.251" height="51.104" viewBox="0 0 291.251 51.104">
  <defs>
    <clipPath id="clip-path">
      <rect id="Rectangle_3083" data-name="Rectangle 3083" width="291.251" height="51.104" fill="none"/>
    </clipPath>
  </defs>
  <g id="Group_8746" data-name="Group 8746" clip-path="url(#clip-path)">
    <path id="Path_35947" data-name="Path 35947" d="M94.5,32.942l3.768.526q-1.158,8.242-8.088,8.241a7.419,7.419,0,0,1-6.713-3.459q-2.208-3.46-2.207-9.256,0-6.25,2.334-9.583a7.715,7.715,0,0,1,6.731-3.333q6.8,0,7.98,8.441l-3.8.561q-.614-5.615-4.157-5.616-4.735,0-4.736,9.764,0,9.093,4.736,9.093a3.179,3.179,0,0,0,2.829-1.385,9.915,9.915,0,0,0,1.328-4" transform="translate(-17.178 -3.399)" fill="#fff"/>
    <path id="Path_35948" data-name="Path 35948" d="M108.3,16.653h4.093V37.918h8.75v3.46H108.3Z" transform="translate(-22.895 -3.521)" fill="#fff"/>
    <path id="Path_35949" data-name="Path 35949" d="M128.471,16.653h4V32a19.215,19.215,0,0,0,.27,3.795,3.181,3.181,0,0,0,1.241,1.938,5.216,5.216,0,0,0,5.045.127,3.159,3.159,0,0,0,1.231-1.666,16.111,16.111,0,0,0,.362-4.266V16.653H144.3V31.724a23.085,23.085,0,0,1-.517,5.579,5.612,5.612,0,0,1-2.391,3.242,8.745,8.745,0,0,1-5.026,1.285,10.321,10.321,0,0,1-4.247-.806,5.521,5.521,0,0,1-2.726-2.608q-.925-1.8-.924-6.421Z" transform="translate(-27.159 -3.521)" fill="#fff"/>
    <path id="Path_35950" data-name="Path 35950" d="M155.511,16.653h7.481a15.451,15.451,0,0,1,4.292.453,4.586,4.586,0,0,1,2.482,2.02,6.873,6.873,0,0,1,1.014,3.813,5.213,5.213,0,0,1-3.676,5.415q4.437,1.4,4.437,6.213a7.106,7.106,0,0,1-1.748,4.773q-1.747,2.037-6.693,2.038h-7.589Zm4,10.252H162.1q2.735,0,3.6-1a3.834,3.834,0,0,0,.869-2.6,3.249,3.249,0,0,0-1-2.672,4.857,4.857,0,0,0-3.08-.806h-2.988Zm0,11.195h3.3q4.528,0,4.529-4a4.423,4.423,0,0,0-.96-2.789q-.961-1.231-3.912-1.232h-2.953Z" transform="translate(-32.875 -3.521)" fill="#fff"/>
    <path id="Path_35951" data-name="Path 35951" d="M206.594,22.057l-3.5,1.214a6.6,6.6,0,0,0-1.621-2.9,3.867,3.867,0,0,0-2.744-.937,3.217,3.217,0,0,0-2.49.953,3.137,3.137,0,0,0-.878,2.189,2.66,2.66,0,0,0,.987,2.171,15.8,15.8,0,0,0,3.94,1.932,21.941,21.941,0,0,1,3.876,1.829,6.585,6.585,0,0,1,3.043,5.706,7.21,7.21,0,0,1-2.2,5.306,8.353,8.353,0,0,1-6.168,2.192q-6.847,0-8.477-6.918l3.659-1.033q.959,4.565,5,4.565a4.068,4.068,0,0,0,3-1.024,3.436,3.436,0,0,0,1.023-2.527,3.341,3.341,0,0,0-.707-2.047,8.449,8.449,0,0,0-3.513-2.01,29.668,29.668,0,0,1-4.284-1.9,6.726,6.726,0,0,1-3.161-5.759,6.668,6.668,0,0,1,2.056-4.964,7.48,7.48,0,0,1,5.462-2.01q6.03,0,7.7,5.978" transform="translate(-40.243 -3.399)" fill="#fff"/>
    <path id="Path_35952" data-name="Path 35952" d="M217.5,16.654h6.121a16.909,16.909,0,0,1,4.765.552,5.649,5.649,0,0,1,3.079,2.445,8.091,8.091,0,0,1,1.25,4.557,8.266,8.266,0,0,1-1.014,4.2,5.961,5.961,0,0,1-2.727,2.536,13.381,13.381,0,0,1-5.262.779h-2.12v9.654H217.5Zm4.093,3.169v8.622h2.028q2.717,0,3.759-1.014a4.448,4.448,0,0,0,1.042-3.3,4.993,4.993,0,0,0-.688-2.762,2.883,2.883,0,0,0-1.513-1.3,9.965,9.965,0,0,0-2.6-.244Z" transform="translate(-45.979 -3.521)" fill="#fff"/>
    <path id="Path_35953" data-name="Path 35953" d="M258.652,28.885q0,6.34-2.264,9.582a7.519,7.519,0,0,1-6.575,3.242,7.637,7.637,0,0,1-6.631-3.233q-2.3-3.233-2.3-9.591,0-6.3,2.282-9.555a8.343,8.343,0,0,1,13.2-.018q2.282,3.234,2.283,9.573m-4.293.009a18.987,18.987,0,0,0-1.024-6.935,3.786,3.786,0,0,0-7.146.009,19.146,19.146,0,0,0-1.014,6.926,19.505,19.505,0,0,0,1,6.889,3.636,3.636,0,0,0,3.641,2.575,3.586,3.586,0,0,0,3.513-2.493,18.758,18.758,0,0,0,1.033-6.971" transform="translate(-50.923 -3.399)" fill="#fff"/>
    <path id="Path_35954" data-name="Path 35954" d="M269.553,16.654H277q4.038,0,5.959,1.829a6.915,6.915,0,0,1,1.919,5.253,6.662,6.662,0,0,1-3.785,6.467l4.692,11.175h-4.441L277.5,31.054h-3.853V41.378h-4.093Zm4.093,3.169v8.061h3.134a3.841,3.841,0,0,0,3.088-1.159,4.506,4.506,0,0,0,.988-3.026q0-3.875-4.04-3.876Z" transform="translate(-56.984 -3.521)" fill="#fff"/>
    <path id="Path_35955" data-name="Path 35955" d="M292.412,16.653h15.106v3.478h-5.524V41.378H297.9V20.131h-5.488Z" transform="translate(-61.816 -3.521)" fill="#fff"/>
    <rect id="Rectangle_3082" data-name="Rectangle 3082" width="4.093" height="24.725" transform="translate(248.406 13.133)" fill="#fff"/>
    <path id="Path_35956" data-name="Path 35956" d="M324.188,16.653h4.3L333.2,36.379l4.726-19.725h3.616l-6.533,24.779-4.433-.054Z" transform="translate(-68.534 -3.521)" fill="#fff"/>
    <path id="Path_35957" data-name="Path 35957" d="M353.171,16.653h4.588L364.4,41.378h-4.146l-1.55-6.2h-7.25l-1.537,6.2h-3.9Zm4.724,15.306-2.835-11.32-2.808,11.32Z" transform="translate(-73.147 -3.521)" fill="#fff"/>
    <path id="Path_35958" data-name="Path 35958" d="M40.883,24.337a12.8,12.8,0,0,0-2.953-.726,22.017,22.017,0,0,1-6.3-1.27,9.154,9.154,0,0,1-4.541-4.329c-.05-.1-.1-.205-.144-.308a9.212,9.212,0,0,1-.643-2.127c-.035-.185-.072-.366-.092-.554-.006-.048,0-.1-.009-.147-.026-.256-.047-.516-.051-.777,0-.151.009-.3.013-.448s0-.308.017-.461c.019-.222.051-.445.084-.666.012-.072.018-.146.031-.217.043-.244.1-.487.164-.726.013-.048.021-.1.035-.144.065-.233.144-.461.227-.687.021-.057.039-.116.061-.172.076-.2.166-.391.256-.584.041-.085.076-.172.12-.256.076-.151.163-.3.248-.445.07-.122.137-.245.213-.363.065-.1.138-.2.208-.3.107-.155.214-.311.332-.459.046-.058.1-.114.146-.172.147-.177.3-.353.459-.52.028-.03.459-.45.657-.619.022-.019.794-.6.836-.629.2-.137.408-.268.622-.39.11-.063.651-.338.808-.408S32.777,5.074,33.026,5c.028-.006.6-.153.867-.2.05-.008.1-.013.155-.022.2-.034.409-.06.616-.081.088-.009.755-.042.882-.045.1,0,.473.015.552.021a9.39,9.39,0,0,1,7.928,5.44,9.231,9.231,0,0,1,.828,3.915l4.646.043A13.963,13.963,0,0,0,41.172,1.18l-.035-.014c-.168-.074-.341-.144-.514-.213-.041-.014-.08-.032-.12-.047a13.989,13.989,0,0,0-2.01-.6A14.2,14.2,0,0,0,36.416.026c-.041,0-.081,0-.121-.006C36.105.012,35.917,0,35.73,0a.315.315,0,0,0-.039,0c-.094,0-.185,0-.278,0-.056,0-.112,0-.168,0l-.04,0c-.183,0-.371.011-.556.021-.042,0-.086,0-.129.007a13.825,13.825,0,0,0-4.083.9c-.039.015-.075.032-.114.047-.173.069-.349.141-.52.217l-.035.015c-.1.045-.194.093-.293.14s-.187.087-.278.133q-.26.13-.513.271c-.021.013-.042.024-.063.035a13.828,13.828,0,0,0-4.049,3.438c0,.006-.009.01-.011.016-.119.149-.236.3-.348.454-.035.046-.066.091-.1.138-.081.114-.16.227-.237.342-.062.092-.123.186-.185.28-.045.071-.088.14-.13.212-.089.142-.173.288-.256.432-.013.024-.028.05-.042.073a13.856,13.856,0,0,0-1.7,5.59,17.876,17.876,0,0,0,1.068,6.679c.028.058.054.118.085.173a16.848,16.848,0,0,0,5.938,6.361c2.834,1.7,6.019,1.431,9.112,2.185A9.334,9.334,0,0,1,44,33.407c.121.274.229.551.321.83a.18.18,0,0,1,.013.032,9.3,9.3,0,0,1,.246.9c.065.3.117.606.153.916,0,.014,0,.029,0,.045.032.289.051.582.057.879,0,.14-.008.28-.013.42,0,.162,0,.326-.017.486-.019.218-.05.435-.084.651-.012.077-.017.158-.031.233-.045.241-.1.479-.162.717-.014.05-.024.1-.039.154-.063.229-.14.453-.224.677-.02.059-.04.121-.062.181-.076.2-.163.386-.252.576-.041.088-.08.178-.122.263-.076.151-.163.295-.246.441-.072.124-.14.247-.216.367-.065.1-.136.2-.2.3-.11.155-.218.312-.334.461-.048.059-.1.115-.146.171-.149.178-.3.354-.461.521-.028.031-.06.058-.088.087-.184.184-.37.363-.568.532-.024.021-.048.038-.074.058-.2.17-.413.332-.629.487-.047.032-.1.061-.146.091-.2.134-.4.263-.606.382-.126.069-.259.132-.386.2s-.278.146-.421.211c-.25.11-.5.206-.757.293-.036.012-.07.028-.108.04-.273.09-.55.164-.826.226a9.371,9.371,0,0,1-.923.162l-.073.012c-.237.028-.479.039-.722.047-.072,0-.141.012-.215.012-.024,0-.047,0-.073,0-.248,0-.494-.01-.737-.029-.04,0-.081,0-.122,0-.291-.027-.576-.069-.859-.122a9.212,9.212,0,0,1-1.835-.542c-4.535-1.863-6.825-6.73-6.239-12.45a6.471,6.471,0,0,1,.422-1.854h-4.93a11.889,11.889,0,0,1-2.132,1.857A9.253,9.253,0,0,1,7.187,31.982c-.128-.138-.259-.27-.38-.415-.042-.049-.075-.1-.115-.15-.151-.191-.3-.385-.443-.591-.091-.132-.167-.271-.25-.408-.073-.121-.153-.243-.22-.367-.11-.2-.21-.413-.3-.624-.028-.059-.059-.118-.086-.178-.1-.234-.185-.472-.263-.712-.014-.043-.031-.084-.045-.125-.074-.233-.134-.472-.188-.71-.014-.055-.03-.11-.042-.166-.045-.212-.077-.424-.106-.638-.013-.09-.029-.181-.04-.271-.02-.172-.027-.345-.035-.519,0-.068-.007-.137-.011-.206,0-.155-.006-.308,0-.461a.232.232,0,0,1,0-.033,8.585,8.585,0,0,1,.1-.926,8.776,8.776,0,0,1,.19-.908c0-.017.009-.031.014-.047a8.7,8.7,0,0,1,.266-.836,9.218,9.218,0,0,1,8.014-6.313l.6-.049c3.574-.059,4.055.569,5.489,1.475a19.676,19.676,0,0,1-.576-4.937c-4.221-1.387-8.542-1.56-12.622,1.182-.011.006-.021.016-.034.024-.138.093-.274.192-.408.291-.049.036-.1.072-.151.108a14.108,14.108,0,0,0-2.923,2.989A.382.382,0,0,0,2.6,17.5c-.125.174-.247.353-.364.532a.312.312,0,0,0-.017.027c-.052.082-.1.166-.151.247-.061.1-.125.2-.181.3-.094.162-.181.323-.267.487a.775.775,0,0,0-.047.087,13.806,13.806,0,0,0-1.505,5.09l0,.019c-.017.19-.032.381-.043.571,0,.057-.006.113-.008.17-.006.14-.009.277-.011.416,0,.1,0,.2,0,.305v.123c0,.226,0,.45.014.675v.029c0,.091.013.177.019.268.008.123.016.247.025.371.017.18.04.36.064.538.006.037.008.073.013.111a13.813,13.813,0,0,0,1.723,5.019s.006.01.009.015c.095.166.193.329.3.491.03.047.06.1.091.144q.115.174.23.343c.065.093.13.185.2.276.048.067.1.132.147.2.1.136.2.268.311.4.017.021.035.041.051.063A13.827,13.827,0,0,0,7.866,38.48l.014.006q.284.138.577.264c.08.035.162.067.245.1.111.046.221.094.336.136L9.078,39c.177.066.358.127.539.187.036.011.071.024.106.036a13.888,13.888,0,0,0,2.957.595c.153.013.31.028.464.036.076,0,.153,0,.228.007.155.006.311.015.467.016.118,0,.238,0,.358-.007s.218,0,.325-.006a.28.28,0,0,0,.057,0,14.011,14.011,0,0,0,7.044-2.3,15.189,15.189,0,0,0,1.092,5.032l.165.36a13.65,13.65,0,0,0,10.712,8.018c.2.027.4.05.6.069.037,0,.073.009.111.011.165.016.33.025.5.034.071,0,.137.009.205.011.137.006.273.007.407.007.1,0,.188,0,.29,0h.039c.094,0,.188-.007.282-.011.114,0,.228-.006.343-.013.146-.008.292-.022.439-.035.07-.006.14-.011.212-.02.211-.022.42-.049.638-.083a13.777,13.777,0,0,0,4.4-1.454l.05-.026c.159-.084.314-.173.47-.263l.173-.1c.112-.066.222-.136.328-.206s.2-.131.3-.2c.063-.043.124-.085.187-.129.141-.1.282-.2.42-.308.017-.014.036-.026.054-.041a13.825,13.825,0,0,0,3.835-4.538c.013-.023.024-.049.037-.072.086-.168.172-.338.253-.51.051-.108.1-.218.147-.328.036-.084.076-.167.112-.253,0-.01.007-.02.011-.029a13.815,13.815,0,0,0,.962-3.734c.013-.1.026-.205.035-.307s.013-.176.019-.262c.009-.144.021-.289.028-.432,0-.12,0-.238,0-.357s.007-.219.007-.33c0-.018,0-.036,0-.054a31.987,31.987,0,0,0-.415-3.2A13.992,13.992,0,0,0,43.6,25.779a12.114,12.114,0,0,0-2.718-1.442" transform="translate(0 0)" fill="#fff"/>
  </g>
</svg>
