<svg xmlns="http://www.w3.org/2000/svg" width="252.62" height="69.867" viewBox="0 0 252.62 69.867">
  <g id="Group_8770" data-name="Group 8770" transform="translate(-94.5 -4895.37)">
    <path id="Path_358" data-name="Path 358" d="M195.122,79.651l4.241.591q-1.305,9.281-9.108,9.281a8.352,8.352,0,0,1-7.558-3.9q-2.486-3.9-2.485-10.422,0-7.035,2.627-10.789a8.684,8.684,0,0,1,7.58-3.753q7.659,0,8.985,9.5l-4.282.632q-.693-6.321-4.683-6.321-5.332,0-5.333,10.992,0,10.239,5.333,10.239a3.575,3.575,0,0,0,3.185-1.56,11.157,11.157,0,0,0,1.5-4.5" transform="translate(0 4836.847)" fill="#2b374b"/>
    <path id="Path_359" data-name="Path 359" d="M205.474,61.172h4.61V85.118h9.851v3.895H205.474Z" transform="translate(0 4836.847)" fill="#2b374b"/>
    <path id="Path_360" data-name="Path 360" d="M224.64,61.172h4.507V78.448a21.47,21.47,0,0,0,.306,4.272,3.576,3.576,0,0,0,1.4,2.183,5.869,5.869,0,0,0,5.68.142,3.552,3.552,0,0,0,1.387-1.876,18.08,18.08,0,0,0,.408-4.8V61.172h4.14V78.141a26.048,26.048,0,0,1-.581,6.282,6.332,6.332,0,0,1-2.692,3.651,9.843,9.843,0,0,1-5.659,1.449,11.646,11.646,0,0,1-4.783-.908,6.219,6.219,0,0,1-3.07-2.937q-1.041-2.03-1.04-7.23Z" transform="translate(0 4836.847)" fill="#2b374b"/>
    <path id="Path_361" data-name="Path 361" d="M249.9,61.173h8.424a17.382,17.382,0,0,1,4.834.51,5.163,5.163,0,0,1,2.794,2.274A7.73,7.73,0,0,1,267.1,68.25q0,4.63-4.141,6.1,5,1.569,5,7a8,8,0,0,1-1.969,5.374q-1.968,2.3-7.536,2.295H249.9Zm4.508,11.544h2.916q3.081,0,4.059-1.132a4.313,4.313,0,0,0,.979-2.927,3.651,3.651,0,0,0-1.122-3.008,5.461,5.461,0,0,0-3.466-.908h-3.366Zm0,12.6h3.712q5.1,0,5.1-4.507a4.974,4.974,0,0,0-1.082-3.141q-1.08-1.387-4.4-1.387h-3.324Z" transform="translate(0 4836.847)" fill="#2b374b"/>
    <path id="Path_362" data-name="Path 362" d="M197.711,104.307l-3.937,1.366a7.43,7.43,0,0,0-1.825-3.268,4.349,4.349,0,0,0-3.09-1.056,3.621,3.621,0,0,0-2.8,1.075,3.529,3.529,0,0,0-.989,2.464,3,3,0,0,0,1.112,2.445,17.756,17.756,0,0,0,4.435,2.174,24.714,24.714,0,0,1,4.365,2.061,7.416,7.416,0,0,1,3.426,6.424,8.125,8.125,0,0,1-2.477,5.976,9.416,9.416,0,0,1-6.945,2.469q-7.71,0-9.546-7.792l4.12-1.162q1.081,5.139,5.63,5.139a4.576,4.576,0,0,0,3.375-1.152,3.865,3.865,0,0,0,1.152-2.845,3.765,3.765,0,0,0-.795-2.305q-.8-1.061-3.957-2.264a33.606,33.606,0,0,1-4.823-2.141,7.566,7.566,0,0,1-3.559-6.487,7.5,7.5,0,0,1,2.314-5.587,8.417,8.417,0,0,1,6.149-2.265q6.793,0,8.669,6.731" transform="translate(0 4836.847)" fill="#2b374b"/>
    <path id="Path_363" data-name="Path 363" d="M204.782,98.085h6.894a19.014,19.014,0,0,1,5.364.623,6.354,6.354,0,0,1,3.467,2.753,9.1,9.1,0,0,1,1.407,5.13,9.305,9.305,0,0,1-1.142,4.732,6.714,6.714,0,0,1-3.069,2.855,15.1,15.1,0,0,1-5.925.876h-2.386v10.872h-4.61Zm4.61,3.57v9.708h2.284q3.06,0,4.232-1.142a5.012,5.012,0,0,0,1.173-3.712,5.618,5.618,0,0,0-.775-3.11,3.254,3.254,0,0,0-1.7-1.469,11.269,11.269,0,0,0-2.927-.275Z" transform="translate(0 4836.847)" fill="#2b374b"/>
    <path id="Path_364" data-name="Path 364" d="M246.81,112q0,7.137-2.549,10.788a8.465,8.465,0,0,1-7.4,3.652,8.6,8.6,0,0,1-7.464-3.641q-2.591-3.642-2.59-10.8,0-7.1,2.569-10.76a9.395,9.395,0,0,1,14.869-.02q2.571,3.64,2.569,10.78m-4.833.009a21.351,21.351,0,0,0-1.153-7.808,4.262,4.262,0,0,0-8.046.01,21.567,21.567,0,0,0-1.142,7.8,22,22,0,0,0,1.122,7.758,4.1,4.1,0,0,0,4.1,2.9,4.042,4.042,0,0,0,3.958-2.807,21.174,21.174,0,0,0,1.162-7.85" transform="translate(0 4836.847)" fill="#2b374b"/>
    <path id="Path_365" data-name="Path 365" d="M253.512,98.085h8.383q4.548,0,6.709,2.061a7.781,7.781,0,0,1,2.163,5.914,7.5,7.5,0,0,1-4.263,7.281l5.282,12.585h-5L262.46,114.3h-4.338v11.626h-4.61Zm4.61,3.57v9.076h3.528a4.322,4.322,0,0,0,3.478-1.306,5.069,5.069,0,0,0,1.11-3.405q0-4.365-4.547-4.365Z" transform="translate(0 4836.847)" fill="#2b374b"/>
    <path id="Path_366" data-name="Path 366" d="M275.063,98.085h17.011V102h-6.221v23.925h-4.61V102h-6.18Z" transform="translate(0 4836.847)" fill="#2b374b"/>
    <rect id="Rectangle_392" data-name="Rectangle 392" width="4.61" height="27.841" transform="translate(296.37 4934.932)" fill="#2b374b"/>
    <path id="Path_367" data-name="Path 367" d="M305.786,98.085h4.845l5.3,22.211,5.321-22.211h4.071l-7.355,27.9-4.993-.06Z" transform="translate(0 4836.847)" fill="#2b374b"/>
    <path id="Path_368" data-name="Path 368" d="M334.479,98.085h5.166l7.475,27.841h-4.667l-1.746-6.976h-8.163l-1.731,6.976h-4.395ZM339.8,115.32l-3.192-12.748-3.162,12.748Z" transform="translate(0 4836.847)" fill="#2b374b"/>
    <path id="Path_369" data-name="Path 369" d="M150.393,91.8a17.5,17.5,0,0,0-4.038-.992c-2.89-.357-5.91-.543-8.607-1.736a12.505,12.505,0,0,1-6.207-5.919c-.068-.139-.133-.28-.2-.421a12.6,12.6,0,0,1-.88-2.908c-.046-.253-.1-.5-.126-.756-.007-.067-.006-.135-.012-.2-.036-.351-.064-.705-.07-1.063,0-.205.011-.406.018-.612s.005-.421.022-.629c.027-.3.071-.609.116-.911.016-.1.025-.2.042-.3.06-.334.138-.666.224-.992.019-.066.029-.133.048-.2.089-.318.2-.63.31-.939.028-.077.052-.158.083-.235.105-.271.227-.534.35-.8.056-.116.1-.235.163-.35.1-.207.224-.408.339-.609.1-.166.188-.335.291-.5.088-.139.189-.272.285-.408.147-.211.292-.425.454-.627.063-.08.132-.156.2-.236.2-.242.408-.482.627-.711.039-.039.628-.614.9-.845.03-.026,1.085-.82,1.143-.861.277-.187.557-.367.85-.533.15-.085.889-.461,1.1-.557s1.485-.5,1.827-.6c.038-.009.824-.209,1.184-.276.068-.011.141-.017.212-.03.28-.046.56-.082.843-.111.119-.012,1.033-.057,1.206-.062.144,0,.647.021.755.029A12.841,12.841,0,0,1,154.69,72.35a12.612,12.612,0,0,1,1.131,5.351l6.352.06a19.089,19.089,0,0,0-11.385-17.625l-.049-.019c-.229-.1-.466-.2-.7-.291-.057-.019-.11-.044-.164-.065a19.13,19.13,0,0,0-2.749-.814,19.324,19.324,0,0,0-2.839-.388c-.056,0-.111,0-.166-.008-.258-.011-.516-.021-.772-.026a.45.45,0,0,0-.052,0c-.128,0-.254,0-.38,0-.077,0-.153-.006-.229-.007l-.055,0c-.251,0-.878.034-.937.038a18.894,18.894,0,0,0-5.581,1.229c-.053.021-.1.045-.155.064-.237.1-.476.193-.712.3a.4.4,0,0,0-.048.02c-.135.061-.266.128-.4.191s-.256.118-.381.182q-.355.178-.7.371c-.028.017-.057.032-.086.048a18.9,18.9,0,0,0-5.536,4.7c-.005.009-.012.014-.015.021-.164.2-.323.41-.476.622-.047.062-.091.125-.137.189-.111.154-.218.31-.323.467-.085.126-.169.255-.252.383-.062.1-.12.192-.178.29-.122.194-.238.393-.351.59-.019.034-.037.07-.057.1a18.932,18.932,0,0,0-2.327,7.644,24.418,24.418,0,0,0,1.46,9.131c.038.079.074.161.115.236a23.03,23.03,0,0,0,8.119,8.7c3.874,2.323,8.228,1.957,12.458,2.987a12.765,12.765,0,0,1,8.523,7.173,12.06,12.06,0,0,1,.438,1.136.242.242,0,0,1,.019.044,12.4,12.4,0,0,1,.336,1.226q.133.617.209,1.253c0,.02,0,.04,0,.062q.066.591.079,1.2c0,.192-.011.383-.018.575-.007.222-.007.445-.024.664-.025.3-.068.6-.115.89-.016.106-.023.215-.042.319-.061.329-.138.655-.222.979-.019.07-.032.141-.052.211-.088.313-.193.62-.307.926-.027.081-.055.166-.085.247-.1.267-.223.527-.345.787-.057.12-.109.244-.167.36-.1.206-.223.4-.336.6-.1.169-.192.338-.3.5-.088.138-.187.27-.279.4-.15.213-.3.428-.457.63-.066.081-.135.158-.2.234-.2.244-.409.484-.63.712-.038.043-.081.08-.121.12-.25.251-.506.5-.776.726-.032.029-.065.052-.1.08-.277.231-.565.454-.861.665-.064.043-.134.083-.2.125-.27.183-.543.359-.828.523-.172.1-.353.18-.529.269-.193.1-.379.2-.575.287-.342.151-.687.282-1.034.4-.051.016-.1.038-.148.055-.373.124-.753.224-1.129.31a12.524,12.524,0,0,1-1.263.221c-.032,0-.065.012-.1.016-.324.038-.654.053-.985.063-.1,0-.194.017-.293.017-.034,0-.066,0-.1,0-.34,0-.675-.014-1.007-.039-.055-.005-.111,0-.167-.007-.4-.036-.788-.094-1.174-.167a12.54,12.54,0,0,1-2.509-.741c-6.2-2.547-9.331-9.2-8.529-17.021a8.809,8.809,0,0,1,.577-2.533h-6.741a16.272,16.272,0,0,1-2.916,2.538,12.65,12.65,0,0,1-16.331-1.816c-.175-.188-.355-.368-.519-.566-.058-.067-.1-.138-.158-.206-.207-.26-.415-.525-.606-.807-.124-.181-.229-.371-.341-.558-.1-.167-.21-.332-.3-.5-.15-.279-.287-.565-.415-.853-.038-.08-.08-.162-.117-.243-.134-.32-.253-.646-.361-.974-.019-.058-.041-.114-.061-.171-.1-.32-.183-.645-.258-.971-.018-.075-.04-.15-.056-.226-.062-.289-.106-.58-.146-.872-.017-.123-.039-.247-.054-.371-.027-.236-.037-.472-.049-.709,0-.093-.009-.188-.014-.282,0-.211-.008-.422.005-.63a.338.338,0,0,1,0-.045A11.812,11.812,0,0,1,101.007,92a12.37,12.37,0,0,1,.26-1.243c.006-.022.013-.042.02-.063.1-.383.221-.765.363-1.143,1.73-4.626,5.722-8.391,10.956-8.63l.825-.068c4.886-.08,5.544.778,7.5,2.017a26.875,26.875,0,0,1-.788-6.75c-5.771-1.9-11.679-2.133-17.256,1.615-.015.01-.029.023-.046.033-.189.127-.374.263-.558.4-.067.05-.14.1-.208.147a18.947,18.947,0,0,0-1.932,1.676A18.635,18.635,0,0,0,98.084,82.4c-.012.014-.021.031-.033.047-.171.239-.337.483-.5.728-.007.012-.017.023-.024.036-.071.113-.137.227-.205.338-.083.137-.17.27-.248.406-.128.222-.248.443-.366.666a1.14,1.14,0,0,0-.064.118,18.883,18.883,0,0,0-2.057,6.959c0,.007,0,.018,0,.026-.023.259-.044.52-.058.78,0,.078-.009.155-.01.234-.008.19-.013.377-.016.568,0,.139,0,.277,0,.417v.169c0,.308,0,.616.019.923v.039c.006.124.019.243.026.367.011.168.022.338.035.507.024.245.054.491.087.735.007.051.011.1.018.152a18.873,18.873,0,0,0,2.355,6.861c0,.006.008.015.013.021q.193.339.406.67c.041.066.083.132.126.2.1.159.208.315.314.47.09.127.178.252.27.377.065.091.133.18.2.27.139.185.28.366.425.545l.07.086a18.9,18.9,0,0,0,6.388,5.024l.02.008c.258.126.521.247.789.361.11.047.223.092.335.135.152.063.3.128.459.187a.494.494,0,0,1,.054.019c.241.091.489.174.736.255.049.015.1.034.145.05a18.969,18.969,0,0,0,4.043.812c.21.019.424.04.635.051.1.006.208.006.311.009.211.009.425.021.638.022.161,0,.326-.007.49-.01.148,0,.3,0,.444-.009a.338.338,0,0,0,.077-.006,19.155,19.155,0,0,0,9.63-3.144,20.8,20.8,0,0,0,1.493,6.88l.226.491a18.663,18.663,0,0,0,14.645,10.962c.272.037.547.068.82.094.051.007.1.012.151.016.226.021.453.034.68.046.1.005.188.012.281.015.186.008.372.01.555.01.131,0,.258,0,.4,0h.054c.128,0,.257-.01.385-.015.157,0,.311-.008.469-.018.2-.011.4-.03.6-.048.1-.009.192-.015.29-.027.288-.029.574-.066.872-.113A18.852,18.852,0,0,0,152,126.18c.023-.012.046-.023.069-.036.216-.115.429-.236.642-.359l.237-.14c.153-.091.3-.186.449-.283s.277-.178.413-.269c.087-.059.17-.118.256-.178.193-.135.386-.275.574-.42.024-.02.051-.036.074-.056a18.884,18.884,0,0,0,5.243-6.205c.018-.031.033-.067.051-.1.117-.229.235-.461.346-.7.07-.149.135-.3.2-.449.05-.115.106-.228.154-.346.007-.014.009-.027.015-.039a18.926,18.926,0,0,0,1.315-5.105c.017-.14.036-.282.048-.421.012-.119.018-.239.026-.357.013-.2.028-.395.038-.591.006-.164.006-.326.006-.489,0-.148.01-.3.01-.451,0-.024,0-.048,0-.074a43.976,43.976,0,0,0-.567-4.378,19.134,19.134,0,0,0-7.485-10.972,16.559,16.559,0,0,0-3.716-1.971" transform="translate(0 4836.847)" fill="#9c3825"/>
  </g>
</svg>
