<svg xmlns="http://www.w3.org/2000/svg" width="24.822" height="24.822" viewBox="0 0 24.822 24.822">
  <g id="Group_8771" data-name="Group 8771" transform="translate(-131.75 -5072.01)">
    <path id="Path_370" data-name="Path 370" d="M150.733,239.6a1.455,1.455,0,1,0,1.455,1.455,1.455,1.455,0,0,0-1.455-1.455" transform="translate(0 4836.847)" fill="#414142"/>
    <path id="Path_371" data-name="Path 371" d="M144.263,241.462a6.112,6.112,0,1,0,6.113,6.112,6.119,6.119,0,0,0-6.113-6.112m0,10.028a3.916,3.916,0,1,1,3.915-3.916,3.92,3.92,0,0,1-3.915,3.916" transform="translate(0 4836.847)" fill="#414142"/>
    <path id="Path_372" data-name="Path 372" d="M149.116,259.985h-9.91a7.465,7.465,0,0,1-7.456-7.456v-9.911a7.464,7.464,0,0,1,7.456-7.455h9.91a7.464,7.464,0,0,1,7.456,7.455v9.911a7.465,7.465,0,0,1-7.456,7.456m-9.91-22.487a5.126,5.126,0,0,0-5.121,5.12v9.911a5.126,5.126,0,0,0,5.121,5.12h9.91a5.126,5.126,0,0,0,5.121-5.12v-9.911a5.126,5.126,0,0,0-5.121-5.12Z" transform="translate(0 4836.847)" fill="#414142"/>
  </g>
</svg>
