<svg xmlns="http://www.w3.org/2000/svg" width="24.822" height="24.822" viewBox="0 0 24.822 24.822">
  <path id="Path_375" data-name="Path 375" d="M252.4,235.163v0H231.244a1.82,1.82,0,0,0-1.831,1.789v21.24a1.822,1.822,0,0,0,1.831,1.791H252.4a1.825,1.825,0,0,0,1.839-1.791V236.952a1.823,1.823,0,0,0-1.839-1.789m-15.622,21.15h-3.682V244.468h3.682Zm.295-15.6a2.144,2.144,0,0,1-2.133,2.134h0a2.134,2.134,0,1,1,2.134-2.135Zm13.494,15.6h-3.678v-5.76c0-1.373-.025-3.141-1.913-3.141-1.916,0-2.209,1.5-2.209,3.041v5.86h-3.677V244.468h3.53v1.619h.05a3.874,3.874,0,0,1,3.483-1.914c3.728,0,4.416,2.452,4.416,5.642Z" transform="translate(-229.413 -235.163)" fill="#414142"/>
</svg>
