<svg version="1.2" xmlns="http://www.w3.org/2000/svg" viewBox="0 0 172 48" width="172" height="48"><defs><clipPath clipPathUnits="userSpaceOnUse" id="cp1"><path d="m-33-10h1088v82.96h-1088z" /></clipPath></defs><style>.s0{fill:#ffffff}</style><g clip-path="url(#cp1)"><path class="s0" d="m68.5 14.8l2.9 0.4q-0.9 6.3-6.2 6.3q-0.7 0.1-1.5-0.1q-0.7-0.1-1.4-0.5q-0.7-0.3-1.3-0.9q-0.5-0.5-0.9-1.1q-0.5-0.8-0.8-1.7q-0.4-0.9-0.6-1.8q-0.2-0.9-0.3-1.8q-0.1-0.9 0-1.8q0-4.8 1.8-7.4q0.4-0.6 1-1.1q0.5-0.5 1.2-0.8q0.7-0.4 1.4-0.5q0.8-0.2 1.5-0.1q5.3 0 6.2 6.4l-3 0.5q-0.4-4.3-3.1-4.3q-3.7 0-3.7 7.5q0 6.9 3.7 6.9q0.3 0.1 0.6 0q0.3-0.1 0.6-0.2q0.3-0.2 0.5-0.4q0.2-0.2 0.4-0.4q0.2-0.4 0.4-0.8q0.2-0.3 0.3-0.7q0.1-0.4 0.2-0.8q0.1-0.4 0.1-0.8z" /><path class="s0" d="m75.6 2.2h3.1v16.3h6.8v2.7h-9.9z" /><path class="s0" d="m88.7 2.2h3v11.8q0 0.3 0 0.7q0 0.4 0.1 0.7q0 0.4 0 0.8q0.1 0.3 0.1 0.7q0.1 0.2 0.2 0.4q0.1 0.2 0.2 0.4q0.1 0.2 0.3 0.4q0.1 0.1 0.3 0.3q0.4 0.2 0.9 0.4q0.5 0.1 1 0.1q0.5 0 1-0.1q0.5-0.1 1-0.3q0.1-0.1 0.3-0.3q0.1-0.1 0.3-0.3q0.1-0.1 0.2-0.3q0.1-0.2 0.1-0.4q0.1-0.4 0.2-0.8q0-0.4 0.1-0.8q0-0.4 0-0.9q0-0.4 0-0.8v-11.7h2.8v11.6q0 0.5 0 1q0 0.6 0 1.1q-0.1 0.6-0.2 1.1q-0.1 0.5-0.2 1.1q-0.1 0.3-0.3 0.7q-0.1 0.3-0.4 0.7q-0.2 0.3-0.5 0.6q-0.3 0.2-0.6 0.4q-0.4 0.3-0.9 0.5q-0.5 0.2-1 0.3q-0.5 0.2-1 0.2q-0.5 0.1-1 0q-0.4 0-0.8 0q-0.4 0-0.8-0.1q-0.4-0.1-0.8-0.2q-0.4-0.1-0.8-0.3q-0.4-0.1-0.7-0.3q-0.3-0.2-0.6-0.5q-0.2-0.3-0.4-0.6q-0.3-0.3-0.4-0.6q-0.2-0.6-0.4-1.2q-0.2-0.6-0.2-1.2q-0.1-0.6-0.2-1.3q0-0.6 0.1-1.2z" /><path fill-rule="evenodd" class="s0" d="m105.9 2.2h5.7q0.4 0 0.9 0q0.4 0 0.8 0.1q0.4 0 0.8 0.1q0.4 0 0.8 0.1q0.3 0.1 0.6 0.3q0.3 0.2 0.5 0.4q0.3 0.2 0.5 0.4q0.2 0.2 0.3 0.5q0.2 0.3 0.4 0.7q0.1 0.3 0.2 0.7q0.1 0.4 0.2 0.8q0 0.3 0 0.7q0.1 0.7-0.1 1.4q-0.2 0.6-0.6 1.2q-0.3 0.6-0.9 1q-0.6 0.4-1.2 0.6q0.8 0.2 1.4 0.6q0.7 0.5 1.2 1.1q0.4 0.7 0.7 1.5q0.2 0.8 0.1 1.6q0 0.5-0.1 0.9q-0.1 0.5-0.2 1q-0.2 0.5-0.5 0.9q-0.2 0.4-0.5 0.8q-1.4 1.6-5.2 1.6h-5.8zm3.1 7.9h2q0.3 0 0.7 0q0.4-0.1 0.7-0.2q0.4-0.1 0.7-0.2q0.3-0.2 0.6-0.4q0.2-0.2 0.3-0.5q0.2-0.2 0.2-0.5q0.1-0.2 0.2-0.5q0-0.3 0-0.5q0-0.3 0-0.6q-0.1-0.3-0.2-0.5q-0.1-0.3-0.2-0.5q-0.2-0.3-0.4-0.5q-0.2-0.1-0.5-0.3q-0.3-0.1-0.6-0.2q-0.3-0.1-0.6-0.1q-0.3 0-0.6 0h-2.3zm0 8.6h2.5q3.5 0 3.5-3.1q0-0.3-0.1-0.5q0-0.3-0.1-0.6q-0.1-0.3-0.2-0.5q-0.2-0.3-0.4-0.5q-0.7-1-3-1h-2.2z" /><path class="s0" d="m70.3 31.6l-2.7 0.9q-0.1-0.3-0.2-0.6q-0.1-0.3-0.3-0.6q-0.1-0.2-0.3-0.5q-0.2-0.3-0.4-0.5q-0.2-0.2-0.5-0.3q-0.2-0.2-0.5-0.3q-0.3 0-0.6-0.1q-0.2 0-0.5 0q-0.3 0-0.6 0q-0.2 0.1-0.5 0.1q-0.2 0.1-0.4 0.3q-0.3 0.1-0.4 0.3q-0.2 0.2-0.3 0.4q-0.2 0.2-0.2 0.4q-0.1 0.2-0.2 0.4q0 0.3 0 0.5q0 0.2 0 0.5q0.1 0.2 0.2 0.4q0.1 0.2 0.2 0.4q0.2 0.2 0.3 0.4q0.4 0.2 0.8 0.4q0.3 0.2 0.7 0.4q0.4 0.2 0.8 0.4q0.4 0.1 0.8 0.3q0.4 0.1 0.7 0.2q0.4 0.2 0.8 0.4q0.4 0.2 0.7 0.3q0.4 0.2 0.7 0.5q0.6 0.3 1 0.8q0.5 0.5 0.8 1q0.3 0.6 0.4 1.2q0.2 0.7 0.2 1.3q0 0.6-0.1 1.2q-0.1 0.5-0.3 1q-0.3 0.6-0.6 1q-0.3 0.5-0.7 0.9q-0.5 0.4-1 0.8q-0.6 0.3-1.2 0.5q-0.6 0.2-1.3 0.3q-0.6 0.1-1.2 0.1q-5.3 0-6.5-5.3l2.8-0.8q0.7 3.5 3.8 3.5q0.3 0 0.6 0q0.3-0.1 0.6-0.2q0.3-0.1 0.6-0.2q0.3-0.2 0.5-0.4q0.2-0.2 0.3-0.4q0.2-0.2 0.3-0.5q0.1-0.2 0.1-0.5q0.1-0.3 0.1-0.5q0-0.2-0.1-0.5q0-0.2-0.1-0.4q0-0.2-0.1-0.4q-0.1-0.1-0.3-0.3q-0.2-0.3-0.6-0.5q-0.3-0.2-0.6-0.4q-0.4-0.2-0.7-0.4q-0.4-0.1-0.8-0.3q-0.4-0.1-0.8-0.3q-0.4-0.1-0.8-0.3q-0.4-0.2-0.8-0.4q-0.5-0.2-0.8-0.4q-0.6-0.4-1.1-0.8q-0.4-0.5-0.7-1.1q-0.4-0.6-0.5-1.2q-0.2-0.7-0.2-1.3q0-0.6 0.1-1.1q0.1-0.5 0.3-1q0.2-0.5 0.5-0.9q0.3-0.5 0.7-0.8q0.4-0.4 0.9-0.7q0.5-0.3 1-0.5q0.6-0.2 1.2-0.3q0.5-0.1 1.1-0.1q4.6 0 5.9 4.6z" /><path fill-rule="evenodd" class="s0" d="m75.1 27.4h4.7q0.5 0 1 0q0.4 0 0.9 0q0.4 0.1 0.9 0.2q0.4 0.1 0.9 0.2q0.4 0.1 0.7 0.3q0.3 0.2 0.6 0.4q0.3 0.3 0.6 0.5q0.2 0.3 0.4 0.7q0.3 0.4 0.5 0.8q0.2 0.4 0.3 0.8q0.1 0.5 0.2 0.9q0 0.5 0 1q0 0.4 0 0.8q-0.1 0.4-0.2 0.8q-0.1 0.4-0.2 0.8q-0.2 0.4-0.4 0.8q-0.1 0.3-0.4 0.6q-0.2 0.3-0.5 0.5q-0.2 0.3-0.5 0.5q-0.3 0.2-0.7 0.3q-0.4 0.2-0.9 0.3q-0.5 0.2-1.1 0.2q-0.5 0.1-1 0.1q-0.5 0.1-1 0h-1.6v7.5h-3.2zm3.2 2.4v6.6h1.5q0.4 0 0.8 0q0.4 0 0.7-0.1q0.4-0.1 0.8-0.3q0.3-0.1 0.6-0.4q0.2-0.2 0.4-0.5q0.2-0.3 0.3-0.7q0.1-0.3 0.1-0.6q0-0.4 0-0.7q0-0.3 0-0.6q0-0.2-0.1-0.5q-0.1-0.3-0.2-0.5q-0.1-0.3-0.2-0.5q-0.1-0.2-0.2-0.3q-0.2-0.2-0.3-0.3q-0.2-0.2-0.3-0.3q-0.2-0.1-0.4-0.1q-0.2-0.1-0.5-0.1q-0.2-0.1-0.5-0.1q-0.2 0-0.5 0q-0.2 0-0.5 0z" /><path fill-rule="evenodd" class="s0" d="m103.8 36.9q0 4.8-1.8 7.3q-0.4 0.6-0.9 1.1q-0.6 0.5-1.3 0.8q-0.6 0.3-1.3 0.5q-0.8 0.1-1.5 0.1q-0.7 0-1.5-0.1q-0.7-0.2-1.4-0.5q-0.6-0.3-1.2-0.8q-0.6-0.5-1-1.1q-1.8-2.5-1.8-7.3q0-4.9 1.8-7.4c0.6-0.8 1.4-1.4 2.2-1.8c0.9-0.5 1.9-0.7 2.9-0.7c0.9 0 1.9 0.2 2.8 0.7c0.9 0.4 1.6 1 2.2 1.8q1.8 2.5 1.8 7.4zm-3.3 0q0-0.7 0-1.4q-0.1-0.7-0.2-1.3q-0.1-0.7-0.2-1.4q-0.2-0.6-0.4-1.3c-0.2-0.5-0.6-1-1.1-1.4c-0.5-0.3-1.1-0.5-1.7-0.5c-0.6 0-1.1 0.2-1.6 0.5c-0.5 0.4-0.9 0.9-1.1 1.4q-0.2 0.7-0.4 1.3q-0.1 0.7-0.2 1.4q-0.1 0.6-0.2 1.3q0 0.7 0 1.4q0 0.6 0 1.3q0.1 0.7 0.2 1.3q0.1 0.7 0.2 1.4q0.2 0.6 0.4 1.2q0.1 0.5 0.4 0.9q0.3 0.3 0.7 0.6q0.3 0.3 0.8 0.4q0.4 0.1 0.9 0.1q0.4 0 0.9-0.1q0.4-0.1 0.8-0.4q0.3-0.2 0.6-0.6q0.3-0.4 0.4-0.8q0.2-0.6 0.4-1.3q0.1-0.7 0.2-1.3q0.1-0.7 0.2-1.4q0-0.7 0-1.3z" /><path fill-rule="evenodd" class="s0" d="m108.4 27.4h5.7q0.6-0.1 1.2 0q0.6 0 1.2 0.2q0.6 0.2 1.1 0.5q0.6 0.3 1 0.7q0.4 0.4 0.7 0.8q0.3 0.5 0.5 1q0.2 0.5 0.3 1.1q0.1 0.5 0 1.1q0.1 0.8-0.1 1.5q-0.2 0.8-0.6 1.4q-0.4 0.7-0.9 1.2q-0.6 0.5-1.3 0.9l3.6 8.5h-3.4l-3-7.9h-2.9v7.9h-3.1zm3.1 2.5v6.2h2.4q0.3 0 0.6-0.1q0.4 0 0.7-0.1q0.3-0.1 0.6-0.3q0.2-0.2 0.5-0.4q0.2-0.3 0.3-0.5q0.2-0.3 0.3-0.6q0.1-0.3 0.1-0.6q0-0.3 0-0.6q0-3-3.1-3z" /><path class="s0" d="m123 27.4h11.6v2.6h-4.2v16.3h-3.1v-16.3h-4.3z" /><path class="s0" d="m137.6 27.4h3.1v18.9h-3.1z" /><path class="s0" d="m144 27.4h3.3l3.6 15.1l3.6-15.1h2.8l-5 19l-3.4-0.1z" /><path fill-rule="evenodd" class="s0" d="m163.6 27.4h3.5l5.1 18.9h-3.2l-1.2-4.7h-5.6l-1.1 4.7h-3zm3.6 11.8l-2.2-8.7l-2.2 8.7z" /><path class="s0" d="m38.7 23.4q0.3 0.1 0.7 0.3q0.3 0.1 0.6 0.3q0.3 0.2 0.6 0.4q0.9 0.7 1.7 1.5q0.8 0.8 1.5 1.8q0.7 1 1.1 2q0.5 1.1 0.8 2.2q0 0.4 0.1 0.7q0.1 0.4 0.1 0.8q0.1 0.4 0.1 0.7q0 0.4 0.1 0.8q0 0 0 0q0 0.2 0 0.3q0 0.2 0 0.4q-0.1 0.2-0.1 0.4q0 0.1 0 0.2q0 0.2 0 0.3q-0.1 0.5-0.2 0.9q0 0.4-0.1 0.9q-0.2 0.4-0.3 0.8q-0.1 0.5-0.3 0.9q0 0 0 0q-0.1 0.1-0.1 0.2q-0.1 0.2-0.2 0.4q-0.1 0.2-0.2 0.4q0 0.1 0 0.1q-0.4 0.6-0.8 1.2q-0.3 0.6-0.8 1.1q-0.4 0.5-0.9 1q-0.6 0.5-1.1 0.9q0 0-0.1 0.1q-0.2 0.1-0.4 0.3q0 0-0.1 0.1q-0.2 0.1-0.3 0.2q-0.2 0.1-0.3 0.2l-0.2 0.1q-0.2 0.1-0.4 0.2h-0.1q-0.4 0.3-0.9 0.5q-0.5 0.2-1.1 0.4q-0.5 0.1-1 0.3q-0.5 0.1-1.1 0.2q-0.3 0-0.6 0.1q-0.1 0-0.2 0q-0.2 0-0.4 0q-0.1 0-0.3 0q-0.1 0-0.2 0h-0.1q-0.1 0-0.3 0q-0.1 0-0.3 0q-0.1 0-0.2 0q-0.3 0-0.5 0q0 0-0.1 0q-0.3-0.1-0.5-0.1q-1.7-0.2-3.2-0.8q-1.5-0.6-2.8-1.6q-1.3-1-2.3-2.3q-1.1-1.3-1.7-2.8l-0.2-0.3q-0.2-0.6-0.4-1.1q-0.2-0.6-0.3-1.2q-0.1-0.6-0.2-1.2q-0.1-0.6-0.1-1.2q-0.7 0.5-1.5 0.9q-0.8 0.3-1.6 0.6q-0.9 0.3-1.7 0.4q-0.9 0.2-1.8 0.2q0 0 0 0.1q0 0 0 0q0 0 0 0q0-0.1 0-0.1q-0.2 0.1-0.3 0.1q-0.2 0-0.4 0q-0.2 0-0.4-0.1q-0.1 0-0.2 0q-0.2 0-0.4 0q-0.4 0-0.7-0.1q-0.4 0-0.7-0.1q-0.4-0.1-0.7-0.2q-0.4 0-0.7-0.1q0-0.1-0.1-0.1q-0.2-0.1-0.5-0.2q0 0 0 0q-0.2 0-0.3-0.1q-0.2 0-0.3-0.1q-0.2-0.1-0.5-0.2q-0.6-0.3-1.2-0.7q-0.6-0.4-1.2-0.8q-0.5-0.4-1-0.9q-0.5-0.5-1-1.1q-0.2-0.2-0.3-0.4q-0.1-0.1-0.1-0.2q-0.1-0.1-0.2-0.2q-0.1-0.2-0.2-0.4q-0.1 0-0.1-0.1q-0.2-0.2-0.3-0.4v-0.1q-0.3-0.5-0.6-1.1q-0.2-0.5-0.4-1.1q-0.3-0.6-0.4-1.2q-0.1-0.6-0.2-1.2q0-0.1 0-0.1q-0.1-0.3-0.1-0.5q0-0.2 0-0.4q0-0.1 0-0.2v-0.1q-0.1-0.3-0.1-0.6v-0.1q0-0.2 0-0.3q0.1-0.2 0.1-0.4q0-0.1 0-0.1q0-0.3 0-0.6q0.1-0.6 0.2-1.2q0.1-0.6 0.3-1.2q0.2-0.6 0.4-1.2q0.2-0.6 0.5-1.1q0-0.1 0.1-0.1q0.1-0.2 0.2-0.5q0.1-0.1 0.2-0.2q0-0.2 0.1-0.3q0 0 0 0q0.2-0.3 0.4-0.5q0 0 0 0q0 0 0 0q0 0 0 0q0 0 0 0q0.3-0.4 0.6-0.8q0.3-0.4 0.6-0.7q0.4-0.4 0.8-0.7q0.3-0.3 0.7-0.6l0.2-0.1q0.1-0.2 0.3-0.3q0.1 0 0.1 0c3.8-2.6 7.8-2.4 11.7-1.1q0 0.6 0.1 1.2q0 0.5 0.1 1.1q0 0.6 0.1 1.2q0.1 0.5 0.3 1.1c-1.4-0.9-1.8-1.4-5.1-1.4l-0.6 0.1q-1.3 0.1-2.5 0.5q-1.1 0.5-2.1 1.3q-1 0.8-1.8 1.8q-0.7 1-1.1 2.2q-0.1 0.4-0.2 0.8q0 0 0 0.1q-0.1 0.1-0.1 0.2q0 0.1 0 0.2q-0.1 0.1-0.1 0.2q0 0.1 0 0.2q0 0.1-0.1 0.2q0 0.1 0 0.2q0 0.2 0 0.3q0 0.1 0 0.2q0 0 0 0q0 0.2 0 0.4q0 0.1 0 0.2q0 0.3 0 0.5q0 0.1 0.1 0.3q0 0.3 0.1 0.6q0 0 0 0.1q0.1 0.4 0.2 0.7q0 0 0 0.1q0.1 0.3 0.3 0.7q0 0.1 0 0.1q0.2 0.3 0.3 0.6q0.1 0.2 0.2 0.4q0.1 0.1 0.3 0.3q0.2 0.3 0.4 0.6q0 0.1 0.1 0.1q0.2 0.2 0.3 0.4q1.1 1.1 2.5 1.8q1.4 0.7 2.9 0.9q1.5 0.2 3-0.2q1.5-0.4 2.8-1.2q0.3-0.2 0.5-0.4q0.3-0.2 0.5-0.5q0.3-0.2 0.5-0.4q0.2-0.2 0.5-0.5h4.6q-0.1 0.2-0.2 0.4q0 0.3-0.1 0.5q0 0.2-0.1 0.4q0 0.2 0 0.4c-0.6 5.4 1.6 9.9 5.8 11.6q0.2 0.1 0.4 0.2q0.2 0.1 0.4 0.1q0.2 0.1 0.5 0.2q0.2 0 0.4 0.1q0.4 0 0.8 0.1q0.1 0 0.1 0q0.4 0 0.7 0h0.1q0.1 0 0.2 0q0.3 0 0.6-0.1h0.1q0.1 0 0.2 0q0.1 0 0.2 0q0.1-0.1 0.3-0.1q0.1 0 0.2 0q0.4-0.1 0.7-0.2q0.1-0.1 0.1-0.1q0.4-0.1 0.7-0.2q0.3-0.1 0.4-0.2q0.2-0.1 0.4-0.2q0.3-0.2 0.6-0.4q0 0 0.1-0.1q0.3-0.2 0.6-0.4q0 0 0.1-0.1q0.2-0.2 0.5-0.5q0 0 0.1-0.1q0.2-0.2 0.4-0.4q0.1-0.1 0.1-0.2q0.2-0.2 0.3-0.4q0.1-0.2 0.2-0.3q0.1-0.2 0.2-0.3q0.1-0.2 0.3-0.5q0-0.1 0.1-0.2q0.1-0.3 0.2-0.5q0-0.1 0.1-0.2q0.1-0.3 0.2-0.6q0-0.1 0-0.2q0.1-0.3 0.2-0.6q0-0.2 0-0.3q0-0.3 0.1-0.6q0-0.2 0-0.4q0-0.2 0-0.4q0-0.4-0.1-0.8q0-0.1 0-0.1q0-0.4-0.1-0.8q0-0.1-0.1-0.2q0-0.1 0-0.3q0-0.1-0.1-0.2q0-0.1 0-0.2q0 0 0 0q0 0 0 0q0 0 0 0q0 0 0 0q-0.1-0.1-0.1-0.2q0-0.1-0.1-0.2q0-0.1-0.1-0.2q0-0.1 0-0.2q-0.4-0.9-1-1.7q-0.6-0.7-1.4-1.4q-0.7-0.6-1.6-1.1q-0.9-0.4-1.9-0.7c-2.8-0.7-5.8-0.4-8.4-2q-0.9-0.5-1.7-1.2q-0.8-0.7-1.5-1.4q-0.7-0.8-1.3-1.6q-0.6-0.8-1.1-1.7q0-0.1-0.1-0.2q-0.2-0.7-0.4-1.5q-0.2-0.8-0.4-1.6q-0.1-0.7-0.1-1.5q-0.1-0.8-0.1-1.6q0.1-0.7 0.2-1.4q0.2-0.6 0.4-1.3q0.2-0.7 0.4-1.3q0.3-0.6 0.6-1.2q0.1-0.1 0.1-0.1q0.1-0.2 0.2-0.4q0.1-0.1 0.1-0.2q0.1-0.1 0.2-0.3q0.1-0.1 0.2-0.3q0.1 0 0.1-0.1q0.2-0.2 0.3-0.4h0.1q0.3-0.5 0.8-1q0.4-0.4 0.9-0.8q0.5-0.4 1-0.8q0.5-0.3 1-0.6l0.1-0.1q0.2-0.1 0.5-0.2q0.1-0.1 0.2-0.2q0.2 0 0.3-0.1q0 0 0 0q0 0 0 0q0 0 0 0q0 0 0 0q0.3-0.1 0.5-0.2q0.1 0 0.1 0q0.5-0.2 0.9-0.4q0.5-0.1 1-0.2q0.5-0.1 0.9-0.2q0.5 0 1-0.1q0.1 0 0.1 0q0.3 0 0.6 0q0.1 0 0.2 0q0.1 0 0.2 0q0 0 0 0q0 0 0 0q0 0 0 0q0 0 0 0q0.3 0 0.6 0q0 0 0.1 0q0.5 0.1 1 0.1q0.4 0.1 0.9 0.2q0.5 0.1 1 0.2q0.4 0.2 0.9 0.3q0 0.1 0.1 0.1q0.2 0.1 0.5 0.2q1.8 0.8 3.2 2q1.5 1.2 2.5 2.8q1 1.6 1.6 3.5q0.5 1.8 0.5 3.7h-4.4q0.1-0.5 0-1q0-0.4-0.1-0.9q-0.1-0.5-0.3-0.9q-0.1-0.4-0.3-0.9q-0.5-1-1.3-2q-0.7-0.9-1.7-1.5q-1-0.7-2.1-1.1q-1.1-0.4-2.3-0.4c-0.1-0.1-0.4-0.1-0.5-0.1c-0.2 0-0.8 0.1-0.9 0.1q-0.2 0-0.5 0.1q-0.1 0-0.2 0c-0.2 0-0.8 0.2-0.8 0.2c-0.2 0-1.1 0.3-1.2 0.4c-0.2 0-0.7 0.3-0.8 0.3q-0.3 0.2-0.6 0.4c0 0-0.7 0.6-0.7 0.6c-0.2 0.2-0.6 0.5-0.6 0.6q-0.3 0.2-0.5 0.5q0 0-0.1 0.1q-0.2 0.2-0.3 0.4q-0.1 0.2-0.2 0.3q-0.1 0.2-0.2 0.4q-0.1 0.2-0.2 0.4q-0.1 0.1-0.2 0.2q-0.1 0.3-0.2 0.6q0 0 0 0.1q-0.2 0.3-0.3 0.7q0 0 0 0.1q-0.1 0.3-0.1 0.7q-0.1 0.1-0.1 0.2q0 0.3-0.1 0.6q0 0.2 0 0.4q0 0.2 0 0.4q0 0.4 0.1 0.8q0 0 0 0.1q0 0.3 0.1 0.5q0 0.3 0.1 0.5q0 0.3 0.1 0.5q0.1 0.3 0.2 0.5q0.1 0.3 0.2 0.5q0 0.1 0.1 0.3q0.3 0.7 0.8 1.3q0.4 0.6 1 1.1q0.5 0.5 1.1 0.9q0.6 0.4 1.3 0.7q0.7 0.3 1.5 0.5q0.7 0.2 1.4 0.3q0.8 0.2 1.5 0.3q0.7 0.1 1.5 0.1q0.3 0 0.7 0.1q0.3 0.1 0.7 0.2q0.3 0 0.7 0.1q0.3 0.2 0.6 0.3q0.4 0.1 0.7 0.3z" /></g></svg>