<svg xmlns="http://www.w3.org/2000/svg" width="30.054" height="24.737" viewBox="0 0 30.054 24.737">
  <path id="Path_374" data-name="Path 374" d="M209.017,238.213a12.389,12.389,0,0,1-3.04.866c.489-.082,1.207-.967,1.495-1.325a5.556,5.556,0,0,0,1.008-1.839c.027-.053.046-.119-.006-.158a.174.174,0,0,0-.161.013,15.475,15.475,0,0,1-3.6,1.379.242.242,0,0,1-.249-.066,2.913,2.913,0,0,0-.314-.322,6.391,6.391,0,0,0-1.746-1.069,6.085,6.085,0,0,0-2.678-.432,6.394,6.394,0,0,0-2.539.718,6.548,6.548,0,0,0-2.05,1.674,6.289,6.289,0,0,0-1.223,2.451,6.627,6.627,0,0,0-.065,2.587c.019.145.006.164-.124.145-4.95-.737-9.052-2.508-12.383-6.3-.145-.165-.223-.165-.342.013-1.457,2.184-.75,5.694,1.071,7.419.243.23.492.459.761.669a6.323,6.323,0,0,1-2.39-.669c-.144-.092-.217-.039-.23.125a3.759,3.759,0,0,0,.04.709,6.351,6.351,0,0,0,3.913,5.062,3.72,3.72,0,0,0,.794.243,7.066,7.066,0,0,1-2.344.072c-.17-.033-.236.053-.17.217a6.59,6.59,0,0,0,4.924,4.123c.223.039.446.039.67.091-.014.021-.027.021-.04.04-.553.843-2.47,1.47-3.363,1.782a12.035,12.035,0,0,1-5.107.654c-.274-.041-.332-.037-.406,0s-.01.112.078.183c.349.23.7.434,1.064.631a16.889,16.889,0,0,0,3.414,1.365c6.135,1.7,13.046.449,17.652-4.127,3.618-3.594,4.886-8.551,4.886-13.514,0-.194.229-.3.365-.4a11.918,11.918,0,0,0,2.4-2.5.761.761,0,0,0,.159-.478v-.026c0-.08,0-.056-.123,0" transform="translate(-179.086 -235.248)" fill="#414142"/>
</svg>
